<?xml version="1.0" encoding="UTF-8" standalone="no"?>
<!-- Uploaded to: SVG Repo, www.svgrepo.com, Generator: SVG Repo Mixer Tools -->

<svg
   width="800.00031"
   height="575.42065"
   viewBox="0 0 24.000009 17.26262"
   fill="none"
   version="1.1"
   id="svg1"
   sodipodi:docname="pistar-control.svg"
   inkscape:version="1.4.2 (f4327f4, 2025-05-13)"
   inkscape:export-filename="pistar-control.png"
   inkscape:export-xdpi="96"
   inkscape:export-ydpi="96"
   xmlns:inkscape="http://www.inkscape.org/namespaces/inkscape"
   xmlns:sodipodi="http://sodipodi.sourceforge.net/DTD/sodipodi-0.dtd"
   xmlns="http://www.w3.org/2000/svg"
   xmlns:svg="http://www.w3.org/2000/svg">
  <defs
     id="defs1" />
  <sodipodi:namedview
     id="namedview1"
     pagecolor="#505050"
     bordercolor="#ffffff"
     borderopacity="1"
     inkscape:showpageshadow="0"
     inkscape:pageopacity="0"
     inkscape:pagecheckerboard="1"
     inkscape:deskcolor="#505050"
     showguides="true"
     inkscape:zoom="0.12734375"
     inkscape:cx="3777.1779"
     inkscape:cy="200.2454"
     inkscape:window-width="1920"
     inkscape:window-height="1017"
     inkscape:window-x="-8"
     inkscape:window-y="-8"
     inkscape:window-maximized="1"
     inkscape:current-layer="svg1" />
  <path
     fill-rule="evenodd"
     clip-rule="evenodd"
     d="m 12.954937,0 h 0.536796 c 3.232873,0 4.849247,0 6.092052,0.7813467 0.31449,0.1977462 0.606443,0.4293097 0.870512,0.6905521 1.043799,1.0322887 1.411764,2.6062757 2.147567,5.7540974 l 1.301756,5.5688788 c 0.457729,1.957599 -0.75872,3.915454 -2.716576,4.372164 -1.651004,0.385281 -3.349246,-0.42055 -4.09498,-1.943085 L 16.938511,14.910356 C 16.253765,13.51247 14.832961,12.626298 13.27643,12.626298 h -2.552838 c -1.5565296,0 -2.9773336,0.886172 -3.6620289,2.284058 L 6.9079727,15.223954 C 6.1622384,16.746489 4.4639583,17.55232 2.8129661,17.167039 0.85517485,16.710329 -0.36127458,14.752474 0.09635182,12.794875 L 1.3981591,7.2259962 C 2.1340258,4.0781745 2.5019654,2.5041875 3.5456879,1.4718988 3.8098333,1.2106564 4.1017735,0.9790929 4.4162882,0.7813467 5.6590683,0 7.2754541,0 10.508161,0 h 0.536924 z m 4.138016,5.0929431 c 0,0.7032087 -0.570027,1.2732362 -1.273236,1.2732362 -0.703208,0 -1.273235,-0.5700275 -1.273235,-1.2732362 0,-0.7032078 0.570027,-1.2732355 1.273235,-1.2732355 0.703209,0 1.273236,0.5700277 1.273236,1.2732355 z M 7.5436737,4.1380165 c 0.5273873,0 0.9549274,0.4275527 0.9549274,0.9549266 v 0.9549268 h 0.9549387 c 0.5273725,0 0.9549242,0.4275531 0.9549242,0.9549273 0,0.527375 -0.4275517,0.954927 -0.9549242,0.954927 H 8.4986011 v 0.954927 c 0,0.527374 -0.4275401,0.954927 -0.9549274,0.954927 -0.5273997,0 -0.9549267,-0.427553 -0.9549267,-0.954927 V 7.9577242 H 5.6338201 c -0.5273998,0 -0.9549268,-0.427552 -0.9549268,-0.954927 0,-0.5273742 0.427527,-0.9549273 0.9549268,-0.9549273 H 6.588747 V 5.0929431 c 0,-0.5273739 0.427527,-0.9549266 0.9549267,-0.9549266 z M 18.366191,9.5492702 c 0.703208,0 1.273235,-0.570029 1.273235,-1.273237 0,-0.703209 -0.570027,-1.273236 -1.273235,-1.273236 -0.703209,0 -1.273238,0.570027 -1.273238,1.273236 0,0.703208 0.570029,1.273237 1.273238,1.273237 z"
     fill="#1c274c"
     id="path1"
     sodipodi:nodetypes="cscccccccsscccccccsccssssssscssscssscssscsssssss"
     style="fill:#101a2c;fill-opacity:1;stroke-width:1.27324" />
</svg>
